<?xml version="1.0" encoding="UTF-8" standalone="no"?>
<!-- Created with Inkscape (http://www.inkscape.org/) -->

<svg
   xmlns:dc="http://purl.org/dc/elements/1.1/"
   xmlns:cc="http://creativecommons.org/ns#"
   xmlns:rdf="http://www.w3.org/1999/02/22-rdf-syntax-ns#"
   xmlns:svg="http://www.w3.org/2000/svg"
   xmlns="http://www.w3.org/2000/svg"
   xmlns:sodipodi="http://sodipodi.sourceforge.net/DTD/sodipodi-0.dtd"
   xmlns:inkscape="http://www.inkscape.org/namespaces/inkscape"
   width="21cm"
   height="29.700001cm"
   viewBox="0 0 744.09449 1052.3622"
   id="svg2"
   version="1.1"
   inkscape:version="0.91 r13725"
   sodipodi:docname="mozvr_nologo_black.svg"
   inkscape:export-filename="Y:\mozvr\work\logo_mozvr\out\mozvr_nologo_black.png"
   inkscape:export-xdpi="248.45"
   inkscape:export-ydpi="248.45">
  <defs
     id="defs4" />
  <sodipodi:namedview
     id="base"
     pagecolor="#ffffff"
     bordercolor="#666666"
     borderopacity="1.0"
     inkscape:pageopacity="0.0"
     inkscape:pageshadow="2"
     inkscape:zoom="0.55947539"
     inkscape:cx="98.632261"
     inkscape:cy="577.86389"
     inkscape:document-units="px"
     inkscape:current-layer="layer1"
     showgrid="false"
     inkscape:window-width="1920"
     inkscape:window-height="1137"
     inkscape:window-x="1192"
     inkscape:window-y="305"
     inkscape:window-maximized="1"
     showguides="true"
     inkscape:guide-bbox="true"
     units="cm" />
  <metadata
     id="metadata7">
    <rdf:RDF>
      <cc:Work
         rdf:about="">
        <dc:format>image/svg+xml</dc:format>
        <dc:type
           rdf:resource="http://purl.org/dc/dcmitype/StillImage" />
        <dc:title></dc:title>
      </cc:Work>
    </rdf:RDF>
  </metadata>
  <g
     inkscape:label="Capa 1"
     inkscape:groupmode="layer"
     id="layer1">
    <path
       style="fill:#000000;fill-opacity:1"
       d="m 624.83535,973.85898 c -9.16837,-1.8275 -25.15901,-4.9979 -35.53476,-7.0452 l -18.86504,-3.7225 -8.60216,-12.4441 c -4.73122,-6.8443 -8.80508,-12.82332 -9.05308,-13.28652 l -0.45088,-0.8423 -3.47688,-16.27089 -3.47691,-16.27089 1.13556,-2.29316 c 0.62455,-1.26125 6.02948,-10.73225 12.01096,-21.04665 l 10.87542,-18.75348 2.27512,-6.25116 2.27509,-6.25115 2.04697,-9.21967 c 1.12582,-5.07081 2.16926,-9.41821 2.31883,-9.66088 0.28142,-0.45663 33.83221,-43.59753 35.99993,-46.29007 l 1.2228,-1.51885 5.1505,-25.01201 5.15054,-25.01201 -10.22122,-25.98424 c -5.62168,-14.29137 -10.4916,-26.50715 -10.82204,-27.14617 l -0.60083,-1.16184 -12.03159,-11.24761 c -6.61735,-6.18618 -12.73136,-11.95753 -13.58667,-12.82519 l -1.55506,-1.57753 -0.27923,-1.87993 c -0.15355,-1.03394 -0.7829,-3.45647 -1.39854,-5.38339 l -1.11935,-3.50349 -2.07651,-2.44768 -2.07653,-2.44769 -0.65273,0.24212 c -0.35897,0.13317 -1.77555,1.23421 -3.14793,2.44674 -1.37237,1.21254 -2.62351,2.20463 -2.78028,2.20463 -0.23282,0 -14.03279,-9.70382 -15.12553,-10.63588 l -0.32153,-0.27429 -1.27968,-10.70141 -1.2797,-10.70142 -0.50183,-0.60798 c -0.27604,-0.33439 -1.03573,-1.24013 -1.68827,-2.01281 l -1.18636,-1.4048 -7.50798,6.11779 c -4.1294,3.36479 -7.60224,6.25423 -7.71745,6.42097 l -0.20951,0.30316 -9.07251,-3.01415 c -4.98992,-1.65777 -9.2984,-3.14786 -9.57447,-3.31126 l -0.50188,-0.29714 -3.16168,-7.1983 -3.16168,-7.1983 -4.10095,-4.83102 -4.10095,-4.83104 -0.62917,0.83414 c -0.34605,0.45875 -1.96661,4.2085 -3.60124,8.33271 -1.63462,4.12421 -3.06173,7.49979 -3.17138,7.50131 -0.10964,0 -5.93802,-6.77405 -12.95194,-15.05684 -7.01387,-8.28277 -13.70575,-15.99726 -14.87078,-17.14331 l -2.11828,-2.08372 -27.55134,-21.80267 -27.55135,-21.80267 -9.00974,-20.58601 c -4.95535,-11.32228 -8.96177,-20.63231 -8.90316,-20.6889 0.0586,-0.0567 8.11942,0.6125 17.9129,1.48694 l 17.80632,1.58991 3.23496,-0.60438 3.23492,-0.6044 14.51897,-7.55602 14.51898,-7.55602 0.56617,-0.84724 0.56616,-0.84728 1.07834,-4.2673 1.07838,-4.26735 0.32207,-7.57715 c 0.34859,-8.20145 0.33643,-8.70632 -0.48858,-20.26891 -0.75579,-10.5923 -1.4095,-17.42746 -1.66678,-17.42743 -0.1179,4e-5 -1.82367,4.04909 -3.79059,8.99788 -1.96692,4.94883 -3.81298,9.57836 -4.10235,10.28789 l -0.52616,1.29008 -0.72558,-1.10066 -0.72556,-1.10061 -0.004,-5.2093 -0.004,-5.20929 -0.29709,0 c -0.16337,0 -1.22311,0.93767 -2.35491,2.08371 -1.1318,1.14604 -2.18828,2.08372 -2.34771,2.08372 -0.15942,0 -0.39109,-0.40333 -0.51482,-0.8963 l -0.22497,-0.89634 0.63966,-3.48064 0.63966,-3.48066 -0.19144,-0.19139 -0.19143,-0.19143 -2.30278,0.96922 c -1.26652,0.5331 -2.45378,0.96924 -2.63833,0.96924 l -0.33551,0 -0.66028,-5.96702 C 434.3,412.212 433.88701,409.0388 433.74535,408.44228 l -0.2575,-1.08456 -2.91505,2.72233 -2.91505,2.72232 -1.66884,-1.39496 -1.66878,-1.39495 -0.772,-1.37938 -0.77201,-1.37939 -0.62178,-2.40977 -0.62178,-2.40976 0.20231,-0.20235 c 0.11127,-0.11126 2.56335,-0.50713 5.44904,-0.87974 2.88565,-0.37261 7.44925,-1.13919 10.14128,-1.7035 l 4.89457,-1.02602 1.56446,-0.67058 1.56446,-0.67061 4.59349,-5.87928 4.59351,-5.8793 0,-0.48759 c 0,-0.2682 -0.26702,-1.18685 -0.5934,-2.04144 l -0.59341,-1.55382 -7.32909,1.6169 -7.32908,1.61689 -9.90199,-2.96691 c -5.44611,-1.63182 -10.00666,-3.07159 -10.13456,-3.1995 l -0.23254,-0.23254 2.28557,-5.96887 c 1.25709,-3.28288 3.01283,-8.18519 3.90163,-10.89402 0.8888,-2.70884 1.6816,-4.99983 1.76176,-5.09109 0.0802,-0.0913 1.51722,0.39479 3.19344,1.08012 l 3.04765,1.2461 0.22527,-0.22527 0.22523,-0.22527 -0.45671,-5.59061 c -0.25118,-3.07482 -0.54639,-6.35777 -0.656,-7.29545 l -0.19928,-1.70486 0.31116,0.42072 c 0.17113,0.23137 0.82261,0.68361 1.44772,1.00496 0.62513,0.32134 1.80526,1.11702 2.62258,1.7682 l 1.48603,1.18394 0.25603,-0.2946 0.25607,-0.29464 0.64243,-7.3728 c 0.35333,-4.05503 0.72945,-7.4598 0.83583,-7.56618 l 0.19337,-0.1934 0.26358,0.39606 c 0.71941,1.0811 3.99449,5.0699 4.08689,4.97755 0.0922,-0.0922 1.3038,-11.3129 1.80999,-16.76129 0.5448,-5.86382 0.69437,-7.2449 0.83251,-7.6879 l 0.15268,-0.48956 4.58134,3.45954 c 2.51978,1.90274 4.66472,3.37619 4.7666,3.27435 0.1018,-0.1019 0.35844,-4.76284 0.57018,-10.35771 l 0.38504,-10.17248 -0.14575,-4.54631 -0.14575,-4.54629 -3.35555,-11.17632 -3.35554,-11.1763 -0.51566,-0.42621 c -0.28358,-0.23444 -2.30111,-1.0624 -4.4834,-1.83989 l -3.96779,-1.41367 0.21194,-0.34295 c 0.11661,-0.18863 1.39408,-1.74024 2.83889,-3.44798 l 2.62692,-3.10504 0,-0.4835 c 0,-0.54609 -3.51844,-9.48267 -4.41941,-11.22489 -0.32275,-0.62412 -1.35908,-1.96039 -2.30297,-2.96948 l -1.71618,-1.83474 -1.10953,0 c -0.61026,0 -5.74412,0.5837 -11.40863,1.29711 -35.88361,3.01485 -49.92263,-2.81785 -81.23359,12.66191 l -2.79737,2.34305 c -1.53858,1.28869 -3.45931,2.68076 -4.26829,3.09353 l -1.47088,0.75044 -10.2123,-2.54998 -10.21232,-2.54998 -1.14694,1.14696 -1.14696,1.14696 2.69568,5.94264 c 1.48263,3.26845 2.69047,6.05855 2.68406,6.20016 -0.006,0.14166 -2.72551,2.09407 -6.04251,4.33869 l -6.03094,4.0811 -6.91347,-1.92658 c -3.80245,-1.05962 -7.04786,-2.00961 -7.21202,-2.11107 l -0.29846,-0.1845 -7.48794,0.83421 c -4.11837,0.45883 -7.6027,0.93619 -7.74295,1.06083 l -0.255,0.2266 -0.24464,3.03087 -0.24466,3.03086 5.3183,6.44059 c 2.92508,3.54231 5.32359,6.53788 5.33007,6.65676 0.006,0.11888 -1.05376,1.07338 -2.35608,2.12115 -1.30233,1.04773 -3.76865,3.05277 -5.48075,4.4556 l -3.11289,2.55058 -5.97971,-1.70933 -5.97969,-1.70933 -9.85031,0.71691 c -5.41768,0.39431 -9.8588,0.72347 -9.86914,0.73147 -0.0106,0.008 -0.67232,1.35471 -1.47096,2.99278 l -1.45208,2.97828 0.77578,1.09444 c 0.42672,0.60194 3.85481,6.3444 7.61804,12.76096 l 6.84221,11.66652 -5.1619,6.55095 -5.16189,6.55091 -10.18598,1.77248 -10.18595,1.7725 -8.70024,4.35326 -8.70028,4.35327 0,3.23591 0,3.23585 7.57715,8.52745 c 4.16745,4.69008 7.57716,8.67369 7.57716,8.85247 0,0.43023 -5.23407,20.15487 -5.38019,20.27524 -0.0623,0.0513 -3.88682,2.11967 -8.49897,4.59638 l -8.38575,4.50311 -3.50281,4.54629 c -1.92653,2.50047 -3.6656,4.75172 -3.86462,5.00274 l -0.36177,0.45645 2.07535,3.52634 2.07534,3.52633 8.06052,7.91583 8.0605,7.91581 -0.49737,8.55973 c -0.27357,4.70784 -0.60067,9.38526 -0.72695,10.3942 l -0.22958,1.8345 -5.4767,4.41665 -5.47666,4.41669 -2.25378,3.15672 -2.2538,3.15669 -0.1476,1.76847 -0.1476,1.76843 0.30092,0.40887 c 0.16549,0.22485 1.4815,1.21196 2.92437,2.19358 l 2.62348,1.78473 1.70187,2.35271 c 0.93604,1.29398 2.68368,3.5461 3.88367,5.00471 l 2.18181,2.652 -0.85433,16.2909 -0.85428,16.29089 -2.89285,4.4961 -2.8928,4.49609 0.60829,1.18678 c 0.33457,0.65274 1.40431,2.46542 2.37718,4.02821 l 1.76889,2.84144 -0.21205,25.11938 -0.21205,25.11933 -2.08371,-1.52123 c -1.14605,-0.83667 -4.54622,-3.35834 -7.55595,-5.60365 l -5.47223,-4.08242 -3.81434,-3.60365 c -2.09785,-1.98203 -5.45339,-4.97672 -7.45675,-6.65482 l -3.64243,-3.0511 3.35244,-6.0415 c 1.84387,-3.32281 3.35715,-6.14519 3.36282,-6.27196 0.005,-0.1268 -0.94737,-0.8664 -2.11793,-1.64364 l -2.12834,-1.41314 -6.90616,0.27104 -6.90618,0.27104 -4.50965,-7.26324 c -2.48035,-3.99475 -4.74542,-7.64468 -5.03354,-8.1109 l -0.52389,-0.84769 3.28542,-7.44013 3.28538,-7.44013 -0.24141,-0.96184 c -0.13276,-0.52904 -0.43777,-1.12123 -0.67781,-1.31596 -0.24001,-0.19474 -2.56749,-0.82141 -5.17214,-1.39257 -4.61153,-1.01125 -6.53208,-1.68039 -7.00118,-2.43939 -0.12634,-0.20451 -0.53328,-2.25118 -0.90421,-4.54816 l -0.67445,-4.17638 1.60693,-7.10385 c 0.88379,-3.90712 1.57824,-7.11843 1.54319,-7.13624 -0.0349,-0.0178 -1.68334,-0.60045 -3.66286,-1.29475 -1.97954,-0.69429 -3.64932,-1.29846 -3.71066,-1.34256 -0.0613,-0.0442 -0.24663,-2.09326 -0.41174,-4.55365 l -0.30016,-4.47343 3.15842,-6.56308 c 1.73971,-3.60964 3.161,-6.70938 3.161,-6.88828 l 0,-0.32529 -3.45314,-0.89028 -3.45318,-0.89023 -0.19833,-0.51684 -0.19833,-0.5168 0.85899,-7.64111 0.85894,-7.64111 3.56425,-4.45711 c 1.96037,-2.45145 3.65129,-4.68386 3.7576,-4.96092 l 0.19333,-0.50378 -2.89721,-1.26322 -2.8972,-1.26318 -0.15885,-0.41395 -0.15882,-0.41394 4.73728,-14.72663 4.73728,-14.72662 -1.00694,-1.85012 -1.00696,-1.85011 -0.26766,0.10444 c -0.28229,0.11015 -4.87917,5.74755 -10.1254,12.41734 -1.72092,2.18791 -3.9821,5.00093 -5.02476,6.25117 -1.04269,1.25022 -2.21048,2.86983 -2.5951,3.59914 -0.38465,0.7293 -4.48951,11.03954 -9.12195,22.91163 l -8.42262,21.58562 -0.34598,1.90358 -0.34596,1.90357 -1.31525,25.38349 c -0.72339,13.96091 -1.41431,27.0117 -1.5354,29.00172 l -0.22016,3.61824 1.17678,5.66379 c 0.6472,3.11508 3.14233,14.69029 5.5447,25.72271 l 4.36793,20.05893 2.30933,4.18797 c 2.30284,4.17626 22.82915,40.92086 24.6673,44.15749 l 0.9682,1.70486 9.91135,10.96362 9.9113,10.96368 3.65192,2.51471 c 3.79514,2.61329 24.69715,18.47436 25.97609,19.71144 l 0.72928,0.70537 -5.89693,8.84319 -5.89693,8.84318 -0.83951,3.96119 c -0.46171,2.1787 -1.23921,5.97524 -1.72771,8.43683 l -0.88819,4.4756 -1.47588,2.34385 c -0.81178,1.2891 -2.55316,4.12015 -3.86981,6.29119 l -2.39389,3.9474 1.05767,4.38747 1.05765,4.38752 0.9784,2.08372 0.97844,2.08372 0.89596,-3.78858 0.89596,-3.78858 1.75715,-1.79957 c 0.96643,-0.98977 1.89565,-1.79958 2.06493,-1.79958 0.16927,0 0.46591,0.41595 0.65921,0.92434 0.43333,1.13986 2.09376,4.72114 4.84101,10.4414 1.15086,2.39627 2.55396,5.37978 3.11803,6.63001 0.56408,1.25024 1.26493,2.45512 1.55745,2.67751 l 0.53188,0.40435 4.8085,1.03083 4.80851,1.03081 3.25189,-1.5817 c 1.78855,-0.86994 3.31705,-1.68623 3.39665,-1.814 l 0.14476,-0.23236 -3.65885,0.10168 -3.65887,0.10169 -2.01761,-1.95547 -2.01761,-1.95544 -0.34195,-3.26083 c -0.18807,-1.79348 -0.58522,-5.56243 -0.88259,-8.37545 -0.29736,-2.81302 -0.49285,-5.16436 -0.43443,-5.22517 0.0585,-0.0608 2.4717,1.86822 5.3628,4.28681 2.89111,2.4186 5.63738,4.55157 6.1028,4.7399 l 0.84625,0.34244 3.13176,-1.33694 c 1.72247,-0.73537 3.55796,-1.62061 4.0789,-1.96722 l 0.94714,-0.63028 -3.21684,-0.59908 -3.21685,-0.59912 -1.24378,-1.6841 c -0.68411,-0.92628 -1.7473,-2.30733 -2.36268,-3.06903 l -1.1188,-1.38491 -0.73988,-2.78252 c -0.40692,-1.5304 -1.28914,-5.50201 -1.96051,-8.82584 l -1.22065,-6.04328 1.56113,-1.38537 c 0.8586,-0.76196 3.59343,-3.28651 6.07741,-5.61009 l 4.51629,-4.22472 0.22428,0.5845 c 0.12336,0.32147 0.50843,3.24575 0.8557,6.49844 l 0.6314,5.91397 5.45904,11.34097 c 3.00249,6.23751 5.40668,11.48799 5.34261,11.66773 -0.27622,0.77544 -34.07391,39.14167 -52.30611,59.37651 l -4.4536,4.94281 -6.28393,15.28874 c -3.4562,8.40883 -6.39648,15.40842 -6.53396,15.55466 l -0.25001,0.26585 -4.50796,-38.53051 c -2.47936,-21.19179 -4.61965,-38.74849 -4.75614,-39.01491 l -0.24823,-0.4844 -10.84822,5.38327 -10.84826,5.38323 -0.2061,2.29943 c -0.32423,3.61749 -4.43847,106.75957 -4.44407,111.41055 -0.005,4.89485 -1.46153,43.50972 -1.64714,43.69543 -0.16278,0.16284 -27.915416,-3.81919 -27.915416,-3.81919 L 79.635372,650.48044 80.064659,635.51555 c 0,0 1.040917,-31.50205 2.064472,-64.21642 1.023523,-32.71439 1.958429,-62.038 2.077543,-65.16357 0.351474,-9.22277 2.811125,-88.32768 2.868484,-92.25193 l 0.05254,-3.59915 -1.733388,-12.69174 c -2.315464,-16.95394 -7.811959,-58.262 -9.522027,-71.2253 l -6.846916,-51.90356 -5.67033,-43.00037 109.858723,-57.38981 159.30746,-23.97313 139.37379,-47.45941 202.68208,-12.858702 0.96652,3.512217 -78.71793,81.114815 73.28294,-11.89192 -0.34913,4.28095 -148.15148,102.01447 118.38137,10.43977 0.21636,6.84437 -10.9056,6.26685 c -5.99812,3.44677 -39.46208,22.66423 -74.36438,42.70548 -34.90229,20.04125 -63.59382,36.56961 -63.75893,36.72971 l -0.30021,0.29109 0.48965,0.36718 0.48963,0.36719 107.0274,-4.78084 0,1.80559 -120.57158,57.36297 -1.04186,0.38628 0.005,0.62591 0.29862,1.08676 0.29278,0.46077 22.52762,7.23039 c 12.39016,3.97671 28.32411,9.11164 35.40875,11.41093 24.10124,7.82202 43.9457,14.29507 44.63103,14.55815 l 0.6835,0.2624 -0.11522,0.96294 -0.11521,0.96295 -20.9319,6.26422 c -11.51255,3.44534 -20.9319,6.37577 -20.9319,6.51208 0,0.13627 27.1499,9.27115 60.33313,20.2997 l 60.33312,20.0519 0.0937,2.25977 0.0936,2.25977 -7.48138,44.89468 -7.48142,44.89465 0.25263,7.76659 0.25262,7.76659 6.54863,75.69286 6.54863,75.69283 -1.37018,8.60307 c -0.75238,4.73144 -6.44479,40.3679 -12.6485,79.19186 l -11.27955,70.58904 4.29822,18.82144 c 2.36408,10.3519 4.37641,19.2051 4.47197,19.6739 l 0.17369,0.8525 -0.32831,-0.032 c -0.18057,-0.017 -7.8297,-1.5272 -16.99807,-3.3547 z M 405.79264,935.09756 c 0.13598,-6.51159 0.36105,-17.72104 0.50021,-24.90987 l 0.25304,-13.0706 -0.70676,0.56828 c -0.38871,0.31256 -10.58492,9.47983 -22.65821,20.37173 -12.07326,10.89186 -22.00214,19.75266 -22.06412,19.69076 -0.062,-0.062 -0.16507,-7.60966 -0.2291,-16.7726 -0.064,-9.16291 -0.20163,-18.46695 -0.30581,-20.67558 l -0.18943,-4.0157 -24.62577,22.49481 c -13.54417,12.37217 -25.00872,22.76539 -25.47676,23.09599 l -0.85096,0.6011 -19.79676,-1.9942 c -10.88823,-1.0968 -19.8408,-2.02652 -19.89456,-2.06622 -0.0537,-0.04 2.79651,-5.98419 6.33394,-13.21007 l 6.43164,-13.13804 0.67497,-0.23357 c 0.37121,-0.12846 2.57534,-1.0408 4.89804,-2.02737 l 4.22309,-1.79379 3.91557,3.92896 3.91561,3.92898 0.50585,0 0.50589,0 -0.18779,-0.663 c -0.10328,-0.36465 -0.29018,-1.94165 -0.41531,-3.50445 -0.12517,-1.56278 -0.32874,-3.86435 -0.45243,-5.11457 l -0.22485,-2.27315 -3.43314,-3.50444 -3.43314,-3.50444 -10.48727,0 -10.48725,0 -2.26295,-2.74672 c -2.81015,-3.41086 -7.81058,-10.15036 -7.63218,-10.28652 0.0728,-0.0555 1.49618,-1.20798 3.16317,-2.56097 1.66697,-1.35298 6.18485,-4.83456 10.03973,-7.73685 l 7.00887,-5.27684 7.48244,-4.86727 c 4.11536,-2.67701 7.4765,-4.97766 7.46923,-5.11253 -0.007,-0.13488 -4.64662,-3.39923 -10.30963,-7.25411 l -10.29642,-7.00888 -7.67191,-27.65663 c -4.21953,-15.21115 -7.63274,-27.79325 -7.58489,-27.96025 0.0479,-0.167 2.31358,2.47554 5.03499,5.8723 l 4.94796,6.17591 10.38927,10.98636 c 5.71413,6.04252 13.71374,14.45127 17.777,18.68611 l 7.38774,7.69971 35.80208,16.45965 35.80208,16.45967 8.5243,-1.13014 c 4.68837,-0.62158 14.49132,-1.91111 21.78433,-2.86564 7.29302,-0.95449 18.28937,-2.39643 24.43635,-3.20426 19.9296,-2.61917 21.22745,-2.77863 21.37119,-2.62534 0.33313,0.35522 10.13422,15.96864 10.30743,16.42004 l 0.19083,0.4973 -2.39056,1.6403 c -1.31479,0.90217 -4.69469,3.18202 -7.51082,5.06639 -2.81616,1.88433 -6.48162,4.46136 -8.14544,5.7267 -1.66387,1.26535 -4.06784,3.00367 -5.34216,3.86288 l -2.31702,1.56222 -1.01898,1.21098 c -1.24107,1.47493 -2.72433,4.34842 -3.69398,7.15621 -0.7301,2.11411 -2.29027,8.76647 -2.10054,8.95624 0.0566,0.0565 1.24246,-0.78287 2.63545,-1.86519 3.79468,-2.9485 7.85032,-5.73985 9.71127,-6.68393 l 1.65694,-0.84061 1.61082,0 1.61083,0 2.79397,1.1107 c 1.53668,0.61087 3.22018,1.21443 3.7411,1.34124 l 0.94715,0.23053 4.81274,10.15082 c 2.64701,5.58293 5.09068,10.86466 5.43036,11.73717 l 0.61762,1.58635 -0.61231,5.23305 c -0.33677,2.8782 -0.69986,5.67622 -0.80689,6.21782 l -0.19462,0.9848 -7.07446,-1.4215 -7.07444,-1.4213 -3.2319,0.5334 c -4.88446,0.8063 -42.92047,6.5911 -43.33726,6.5911 l -0.36348,0 z m -235.73798,-45.0841 c -1.54169,-13.17948 -2.89111,-24.64441 -2.99867,-25.4776 l -0.19556,-1.5149 4.11493,4.92463 c 2.26318,2.70853 5.65843,6.73927 7.54496,8.95719 l 3.43002,4.03263 6.15645,8.72144 c 3.38604,4.79682 6.15644,8.80934 6.15644,8.91675 0,0.18561 -21.02677,15.4027 -21.28318,15.40263 -0.0673,0 -1.38367,-10.78324 -2.92539,-23.96277 z m 184.96609,-122.50377 -8.26717,-7.80455 -0.25813,-1.19332 -0.25815,-1.19334 -0.0334,-9.85031 c -0.0288,-8.53956 -0.31074,-16.8206 -0.58367,-17.15301 -0.0471,-0.0574 -2.45397,1.0708 -5.34848,2.50717 l -5.26276,2.61154 -2.78878,6.01713 c -1.53384,3.30944 -2.91012,6.1489 -3.05841,6.30992 l -0.26963,0.29274 -2.15031,-6.92276 c -1.18272,-3.80752 -2.30638,-7.46699 -2.49706,-8.13217 l -0.34669,-1.20944 2.90341,-2.75107 c 1.59693,-1.51309 6.51474,-6.23195 10.92846,-10.48633 l 8.02505,-7.7353 1.38928,-5.92113 c 0.76408,-3.25659 2.11015,-8.84551 2.99119,-12.41977 l 1.60196,-6.49863 1.90028,-2.02567 c 4.93746,-5.26328 25.83856,-27.87912 26.9265,-29.13556 l 1.22886,-1.4192 -2.60309,-10.7401 c -1.43171,-5.90704 -3.04697,-12.6154 -3.5895,-14.9075 -0.86829,-3.66848 -3.81074,-16.0511 -4.7489,-19.98475 l -0.33882,-1.42072 0.29335,0 c 0.16132,0 9.4729,5.11189 20.69235,11.35975 l 20.39901,11.35972 1.33585,-1.26455 c 0.73468,-0.69551 3.97835,-3.7082 7.20811,-6.69484 l 5.8723,-5.43025 0.24585,3.19639 c 0.13524,1.75802 0.3698,10.10107 0.52127,18.54013 0.15147,8.43906 0.32859,15.43817 0.39355,15.5536 0.065,0.11541 0.15155,4.36441 0.19231,9.44222 l 0.074,9.2324 -22.49784,13.54076 -22.49788,13.54072 -0.11994,0.98064 c -0.066,0.5393 0.75824,12.76819 1.83163,27.17526 l 1.95165,26.19469 4.91894,5.818 4.91894,5.81802 -0.49945,0 c -0.56057,0 -13.31902,-2.26921 -13.42256,-2.38688 -0.0363,-0.0414 -3.42794,-5.53088 -7.53667,-12.19878 -4.10871,-6.6679 -7.6857,-12.3516 -7.94885,-12.63044 l -0.47846,-0.50695 -1.98597,5.05324 c -1.09229,2.77931 -2.47119,6.36861 -3.06425,7.97622 l -1.07826,2.92292 3.07136,7.11682 c 1.68925,3.91424 3.20507,7.20462 3.36847,7.31199 0.16336,0.10733 2.95077,0.84967 6.19421,1.64958 l 5.89715,1.45444 -0.17083,0.27638 c -0.094,0.152 -0.81757,0.71627 -1.6081,1.25394 l -1.43731,0.97757 -5.77004,1.16915 c -3.17354,0.64308 -5.93178,1.1692 -6.12944,1.1692 -0.19764,0 -4.07961,-3.51205 -8.62655,-7.80456 z m 181.82047,-84.56557 c -11.73618,-17.75393 -19.87261,-30.42455 -19.66829,-30.62886 0.0723,-0.0723 7.74621,3.62127 17.05304,8.20808 l 16.9215,8.33954 0,1.03799 c 0,1.29975 -3.30962,28.91092 -3.4856,29.08694 -0.071,0.0709 -4.93994,-7.14871 -10.81996,-16.04369 z M 324.96924,491.48989 c -8.64744,-2.50115 -16.57504,-4.79009 -17.6169,-5.08662 l -1.89429,-0.53912 -8.08858,-21.96122 -8.08858,-21.96123 0.8436,-1.36498 0.84361,-1.36499 0.28175,0.31188 c 0.15499,0.17155 3.90512,6.19364 8.3337,13.38247 4.42856,7.18883 8.24396,13.26041 8.47866,13.49238 l 0.4267,0.42182 14.20718,-2.0359 14.20718,-2.03591 1.14915,0.15624 1.14911,0.15624 10.6131,6.77868 10.61314,6.77872 8.21376,3.3929 8.21375,3.3929 -0.10169,0.33124 -0.10168,0.33123 -17.7833,6.01463 c -9.78082,3.30805 -17.87186,6.00146 -17.98007,5.9854 -0.1082,-0.0163 -7.27191,-2.07566 -15.91934,-4.57676 z m 84.98201,-31.65556 -1.96589,-0.1468 -0.38727,-1.21228 c -0.21303,-0.66678 -1.58484,-5.54299 -3.04848,-10.83609 -1.46364,-5.29306 -2.71883,-9.68145 -2.78934,-9.75195 -0.0704,-0.0706 -1.54703,3.74876 -3.28118,8.4872 -1.73419,4.73846 -3.409,9.27131 -3.72182,10.07301 l -0.56882,1.45758 -1.93308,-0.21713 c -1.06323,-0.11941 -2.38662,-0.22125 -2.94089,-0.22629 l -1.00776,-0.01 -2.35112,-9.75559 c -1.29308,-5.36558 -2.47144,-9.88718 -2.61855,-10.04797 l -0.26744,-0.29236 -4.70723,6.52348 -4.70723,6.52344 -0.0952,-0.54821 c -0.0523,-0.30153 -0.50869,-4.78312 -1.01416,-9.95911 -0.50544,-5.17596 -0.99329,-9.48513 -1.0841,-9.57598 -0.0909,-0.0908 -2.50778,3.4195 -5.371,7.80073 -2.86326,4.38118 -5.33004,7.96582 -5.48178,7.96582 -0.15173,0 -1.20017,-1.97967 -2.32989,-4.39933 l -2.05402,-4.39934 -1.76688,2.54161 -1.76688,2.5416 -0.56389,-0.88898 c -0.3101,-0.48896 -3.07955,-5.32163 -6.15428,-10.73931 l -5.59043,-9.85031 -1.25338,-5.68286 c -0.68938,-3.12558 -1.25913,-5.88284 -1.26614,-6.12723 l -0.0129,-0.4444 2.56249,0.72517 2.56248,0.72517 10.34399,1.30395 10.34404,1.304 0.44823,0.35283 c 0.24656,0.19401 4.79566,3.80051 10.10914,8.01439 l 9.66088,7.66165 1.3609,-0.21739 c 0.7485,-0.11956 3.3641,-0.33176 5.81239,-0.4716 l 4.45151,-0.25425 0.11177,-0.41387 c 0.0614,-0.22758 0.3016,-2.88587 0.53362,-5.90726 l 0.42189,-5.49344 0.51263,-1.89429 c 0.28195,-1.04186 0.9023,-2.79563 1.37852,-3.89732 l 0.86588,-2.00302 0.28865,0.10873 c 0.15874,0.0598 5.16175,4.76911 11.11778,10.46513 l 10.82912,10.35638 0.35451,1.38821 c 0.19498,0.76351 0.73224,3.09307 1.19389,5.17679 0.46167,2.08372 0.95423,3.91804 1.09459,4.07629 l 0.2552,0.28774 3.00833,-4.70746 3.00835,-4.70743 0.14382,0.63114 c 0.0791,0.34711 -0.0682,5.03013 -0.32733,10.4067 -0.25914,5.37656 -0.3961,9.85057 -0.30441,9.94229 0.0917,0.0917 2.11049,-2.63468 4.48624,-6.05865 2.3757,-3.42398 4.35751,-6.18736 4.40399,-6.14088 0.0465,0.0465 -0.48322,1.86887 -1.17715,4.04969 -0.69395,2.18086 -2.14531,6.73557 -3.22525,10.12161 l -1.9635,6.15644 -4.05185,0 -4.05185,0 -2.08092,-6.81743 c -1.14453,-3.74959 -2.1662,-6.81709 -2.27038,-6.81668 -0.10423,0 -1.39951,3.11092 -2.87845,6.91215 l -2.68906,6.91139 -1.28895,0.0329 c -0.70896,0.0182 -2.17363,-0.0329 -3.25488,-0.11373 z m -65.47082,-82.28345 c -0.41675,-0.16131 -2.59045,-0.69417 -4.83044,-1.18407 l -4.07273,-0.89082 0.005,-4.00119 c 0.004,-2.20067 0.17454,-8.34859 0.38169,-13.66207 l 0.37666,-9.66088 1.03903,-0.85054 c 0.57143,-0.46781 1.12422,-0.85137 1.2284,-0.85231 0.10423,0 1.37477,2.64071 2.82348,5.8704 1.44875,3.22968 2.72763,5.87218 2.84201,5.87218 0.11437,0 0.96055,-3.45234 1.88038,-7.67187 0.91983,-4.21953 1.77915,-7.97936 1.9096,-8.35519 l 0.23716,-0.68331 2.66076,-1.46928 2.66072,-1.46925 3.72982,4.97608 3.72986,4.97606 2.52247,-8.50634 2.52251,-8.50639 3.00507,-1.75301 3.00509,-1.75306 0.42103,0.42706 c 0.2316,0.23486 2.26016,3.41052 4.50792,7.05702 2.2478,3.64651 4.51186,7.30415 5.03127,8.12806 l 0.94438,1.49804 3.64029,-10.64238 c 2.00216,-5.85332 3.75544,-10.70433 3.89618,-10.78007 l 0.25592,-0.13768 4.05764,5.59991 c 2.2317,3.07992 4.11141,5.54617 4.17707,5.48048 0.0657,-0.0657 1.49751,-3.86428 3.18188,-8.44133 1.68432,-4.57707 3.24457,-8.78303 3.46719,-9.34662 l 0.40473,-1.0247 2.77854,-1.43034 c 1.5282,-0.7867 2.85428,-1.34847 2.94684,-1.24845 0.14211,0.15367 4.04791,6.25889 7.34977,11.48871 0.50578,0.80106 0.99366,1.38243 1.08422,1.29188 0.0906,-0.0906 1.0162,-4.40317 2.057,-9.58364 1.0408,-5.18046 2.01996,-9.53138 2.1759,-9.66869 0.1559,-0.13733 1.86341,-0.89564 3.79442,-1.68511 l 3.51094,-1.43546 0.26968,0.26971 c 0.14832,0.14832 1.31945,2.09179 2.60253,4.31879 l 2.33281,4.04913 -0.66781,0.94714 c -0.36734,0.52093 -7.4532,14.24506 -15.74643,30.49807 -8.2932,16.253 -15.12595,29.61411 -15.1838,29.69141 -0.058,0.0772 -4.2517,-0.66074 -9.31957,-1.63993 l -9.21428,-1.78041 -17.41538,3.27501 c -9.57844,1.80124 -18.82958,3.60475 -20.55809,4.00778 -3.4808,0.81163 -3.37752,0.8025 -4.43942,0.39147 z m -12.31289,-68.79853 c -1.56279,-0.27421 -5.64677,-0.94737 -9.0755,-1.49592 -3.42874,-0.54854 -6.26211,-1.03348 -6.29636,-1.07758 -0.10832,-0.13958 4.18361,-11.18234 4.44931,-11.44758 l 0.25376,-0.25333 6.56568,-0.52908 c 11.85671,-0.95541 21.70765,-1.62776 21.84446,-1.49096 0.2511,0.25111 -0.49793,1.25345 -6.75447,9.0389 l -6.25115,7.77875 -0.94715,-0.0125 c -0.52093,-0.006 -2.22579,-0.23667 -3.78858,-0.51085 z m 71.03587,-37.7923 -2.652,-0.37018 -2.52013,-1.81855 -2.52016,-1.81856 -2.405,-0.19806 c -1.32277,-0.10897 -3.81153,-0.20902 -5.5306,-0.22243 l -3.12558,-0.0244 0,-0.4991 0,-0.49911 2.17843,-0.6976 c 1.19814,-0.3837 3.37185,-0.98969 4.83044,-1.34668 1.45861,-0.35696 4.18639,-1.10441 6.06173,-1.66096 l 3.40972,-1.01189 0.75773,0.19796 0.75771,0.19795 4.04745,3.89098 4.04741,3.89103 -1.04416,1.23129 -1.04417,1.23129 -1.29838,-0.0515 c -0.71416,-0.0284 -2.49183,-0.218 -3.95044,-0.4216 z"
       id="path4153"
       inkscape:connector-curvature="0"
       sodipodi:nodetypes="cscsccccsscccscscccsccssccsccccsscccccscsccscccccccscsscccscscccccccccsscsccccccssssccccccscscccccccccccsscccccsscccsccsscccccsscccscccsccccsccscscccccccccscssscsccsccccccscscsccsccccsccscccscsccscccccccccsscscsccccccscccccccccccsscccccsscccssccscscccccsccccccscscscscsccscccccccsccccccccccssccscccsscsscsscccscccccsccscccccccsscssccccsscccccsscssccccccscccsccsccscscscsccsccccscccccssccsscccccccccccccsscccccccccccssccccsssccccccccccscscccccssccscsscsccscsccscccccccccccccscsscscscscscsscccssscccscsscssccccccsccsccssccccscssscsscsscsccccccscscccsccscsccsscssccssccsccsccccccscccscsccsscscsccsccsccccscscccccccccccsccccccccccccsccccccscscccccscccccscsssccccscscccccccscssccscscccscssccccsscsssscccscsccccccccsccccsscccccccccccsscsccsccccscccscccccccscscsscccscccscscccccccccscccccscccccccccc"
       inkscape:export-filename="Y:\mozvr\work\logo_mozvr\out\mozvr_nologo.png"
       inkscape:export-xdpi="247.91"
       inkscape:export-ydpi="247.91" />
    <path
       style="fill:#000000"
       d=""
       id="path4151"
       inkscape:connector-curvature="0" />
    <path
       style="fill:#000000"
       d=""
       id="path4149"
       inkscape:connector-curvature="0" />
    <path
       style="fill:#000000"
       d=""
       id="path4147"
       inkscape:connector-curvature="0" />
  </g>
</svg>
